# This file uses centimeters as units for non-parametric coordinates.

v 0.951057 2.541388 -0.309017
v 0.809018 2.541388 -0.587786
v 0.587786 2.541388 -0.809017
v 0.309017 2.541388 -0.951057
v 0.000000 2.541388 -1.000000
v -0.309017 2.541388 -0.951057
v -0.587785 2.541388 -0.809017
v -0.809017 2.541388 -0.587785
v -0.951057 2.541388 -0.309017
v -1.000000 2.541388 0.000000
v -0.951057 2.541388 0.309017
v -0.809017 2.541388 0.587785
v -0.587785 2.541388 0.809017
v -0.309017 2.541388 0.951057
v -0.000000 2.541388 1.000000
v 0.309017 2.541388 0.951057
v 0.587785 2.541388 0.809017
v 0.809017 2.541388 0.587785
v 0.951057 2.541388 0.309017
v 1.000000 2.541388 0.000000
v 0.951057 4.541388 -0.309017
v 0.809018 4.541388 -0.587786
v 0.587786 4.541388 -0.809017
v 0.309017 4.541388 -0.951057
v 0.000000 4.541388 -1.000000
v -0.309017 4.541388 -0.951057
v -0.587785 4.541388 -0.809017
v -0.809017 4.541388 -0.587785
v -0.951057 4.541388 -0.309017
v -1.000000 4.541388 0.000000
v -0.951057 4.541388 0.309017
v -0.809017 4.541388 0.587785
v -0.587785 4.541388 0.809017
v -0.309017 4.541388 0.951057
v -0.000000 4.541388 1.000000
v 0.309017 4.541388 0.951057
v 0.587785 4.541388 0.809017
v 0.809017 4.541388 0.587785
v 0.951057 4.541388 0.309017
v 1.000000 4.541388 0.000000
v 0.000000 2.541388 0.000000
v 0.000000 4.541388 0.000000
vt 0.648603 0.107966
vt 0.626409 0.064408
vt 0.591842 0.029841
vt 0.548284 0.007647
vt 0.500000 -0.000000
vt 0.451716 0.007647
vt 0.408159 0.029841
vt 0.373591 0.064409
vt 0.351397 0.107966
vt 0.343750 0.156250
vt 0.351397 0.204534
vt 0.373591 0.248091
vt 0.408159 0.282659
vt 0.451716 0.304853
vt 0.500000 0.312500
vt 0.548284 0.304853
vt 0.591841 0.282659
vt 0.626409 0.248091
vt 0.648603 0.204534
vt 0.656250 0.156250
vt 0.375000 0.312500
vt 0.387500 0.312500
vt 0.400000 0.312500
vt 0.412500 0.312500
vt 0.425000 0.312500
vt 0.437500 0.312500
vt 0.450000 0.312500
vt 0.462500 0.312500
vt 0.475000 0.312500
vt 0.487500 0.312500
vt 0.500000 0.312500
vt 0.512500 0.312500
vt 0.525000 0.312500
vt 0.537500 0.312500
vt 0.550000 0.312500
vt 0.562500 0.312500
vt 0.575000 0.312500
vt 0.587500 0.312500
vt 0.600000 0.312500
vt 0.612500 0.312500
vt 0.625000 0.312500
vt 0.375000 0.688440
vt 0.387500 0.688440
vt 0.400000 0.688440
vt 0.412500 0.688440
vt 0.425000 0.688440
vt 0.437500 0.688440
vt 0.450000 0.688440
vt 0.462500 0.688440
vt 0.475000 0.688440
vt 0.487500 0.688440
vt 0.500000 0.688440
vt 0.512500 0.688440
vt 0.525000 0.688440
vt 0.537500 0.688440
vt 0.550000 0.688440
vt 0.562500 0.688440
vt 0.575000 0.688440
vt 0.587500 0.688440
vt 0.600000 0.688440
vt 0.612500 0.688440
vt 0.625000 0.688440
vt 0.648603 0.795466
vt 0.626409 0.751908
vt 0.591842 0.717341
vt 0.548284 0.695147
vt 0.500000 0.687500
vt 0.451716 0.695147
vt 0.408159 0.717341
vt 0.373591 0.751909
vt 0.351397 0.795466
vt 0.343750 0.843750
vt 0.351397 0.892034
vt 0.373591 0.935591
vt 0.408159 0.970159
vt 0.451716 0.992353
vt 0.500000 1.000000
vt 0.548284 0.992353
vt 0.591841 0.970159
vt 0.626409 0.935591
vt 0.648603 0.892034
vt 0.656250 0.843750
vt 0.500000 0.150000
vt 0.500000 0.837500
vn 0.966026 0.000000 -0.258445
vn 0.838881 0.000000 -0.544315
vn 0.933442 0.000000 -0.358728
vn 0.776903 0.000000 -0.629620
vn 0.629620 0.000000 -0.776903
vn 0.544315 0.000000 -0.838881
vn 0.358728 0.000000 -0.933442
vn 0.258446 0.000000 -0.966026
vn 0.052721 0.000000 -0.998609
vn -0.052721 0.000000 -0.998609
vn -0.258446 0.000000 -0.966026
vn -0.358728 0.000000 -0.933442
vn -0.544316 0.000000 -0.838881
vn -0.629620 0.000000 -0.776903
vn -0.776903 0.000000 -0.629620
vn -0.838881 0.000000 -0.544315
vn -0.933442 0.000000 -0.358728
vn -0.966026 0.000000 -0.258446
vn -0.998609 0.000000 -0.052721
vn -0.998609 0.000000 0.052721
vn -0.966026 0.000000 0.258446
vn -0.933442 0.000000 0.358728
vn -0.838881 0.000000 0.544315
vn -0.776903 0.000000 0.629620
vn -0.629620 0.000000 0.776903
vn -0.544315 0.000000 0.838881
vn -0.358728 0.000000 0.933442
vn -0.258446 0.000000 0.966026
vn -0.052721 0.000000 0.998609
vn 0.052721 0.000000 0.998609
vn 0.258446 0.000000 0.966026
vn 0.358728 0.000000 0.933442
vn 0.544315 0.000000 0.838881
vn 0.629620 0.000000 0.776903
vn 0.776903 0.000000 0.629620
vn 0.838881 0.000000 0.544315
vn 0.933442 0.000000 0.358728
vn 0.966026 0.000000 0.258446
vn 0.998609 0.000000 0.052722
vn 0.998609 0.000000 -0.052720
vn 0.000000 -1.000000 0.000000
vn 0.000000 -1.000000 0.000000
vn 0.000000 -1.000000 0.000000
vn 0.000000 -1.000000 0.000000
vn 0.000000 -1.000000 0.000000
vn 0.000000 -1.000000 0.000000
vn 0.000000 -1.000000 0.000000
vn 0.000000 -1.000000 0.000000
vn 0.000000 -1.000000 0.000000
vn 0.000000 -1.000000 0.000000
vn 0.000000 -1.000000 0.000000
vn 0.000000 -1.000000 0.000000
vn 0.000000 -1.000000 0.000000
vn 0.000000 -1.000000 0.000000
vn 0.000000 -1.000000 0.000000
vn 0.000000 -1.000000 0.000000
vn 0.000000 -1.000000 0.000000
vn 0.000000 -1.000000 0.000000
vn 0.000000 -1.000000 0.000000
vn 0.000000 -1.000000 0.000000
vn 0.000000 -1.000000 0.000000
vn 0.000000 1.000000 0.000000
vn 0.000000 1.000000 0.000000
vn 0.000000 1.000000 0.000000
vn 0.000000 1.000000 0.000000
vn 0.000000 1.000000 0.000000
vn 0.000000 1.000000 0.000000
vn 0.000000 1.000000 0.000000
vn 0.000000 1.000000 0.000000
vn 0.000000 1.000000 0.000000
vn 0.000000 1.000000 0.000000
vn 0.000000 1.000000 0.000000
vn 0.000000 1.000000 0.000000
vn 0.000000 1.000000 0.000000
vn 0.000000 1.000000 0.000000
vn 0.000000 1.000000 0.000000
vn 0.000000 1.000000 0.000000
vn 0.000000 1.000000 0.000000
vn 0.000000 1.000000 0.000000
vn 0.000000 1.000000 0.000000
vn 0.000000 1.000000 0.000000
vn 0.000000 1.000000 0.000000
s 1
f 1/21/1 2/22/2 21/42/3
f 21/42/3 2/22/2 22/43/4
f 2/22/2 3/23/5 22/43/4
f 22/43/4 3/23/5 23/44/6
f 3/23/5 4/24/7 23/44/6
f 23/44/6 4/24/7 24/45/8
f 4/24/7 5/25/9 24/45/8
f 24/45/8 5/25/9 25/46/10
f 5/25/9 6/26/11 25/46/10
f 25/46/10 6/26/11 26/47/12
f 6/26/11 7/27/13 26/47/12
f 26/47/12 7/27/13 27/48/14
f 7/27/13 8/28/15 27/48/14
f 27/48/14 8/28/15 28/49/16
f 8/28/15 9/29/17 28/49/16
f 28/49/16 9/29/17 29/50/18
f 9/29/17 10/30/19 29/50/18
f 29/50/18 10/30/19 30/51/20
f 10/30/19 11/31/21 30/51/20
f 30/51/20 11/31/21 31/52/22
f 11/31/21 12/32/23 31/52/22
f 31/52/22 12/32/23 32/53/24
f 12/32/23 13/33/25 32/53/24
f 32/53/24 13/33/25 33/54/26
f 13/33/25 14/34/27 33/54/26
f 33/54/26 14/34/27 34/55/28
f 14/34/27 15/35/29 34/55/28
f 34/55/28 15/35/29 35/56/30
f 15/35/29 16/36/31 35/56/30
f 35/56/30 16/36/31 36/57/32
f 16/36/31 17/37/33 36/57/32
f 36/57/32 17/37/33 37/58/34
f 17/37/33 18/38/35 37/58/34
f 37/58/34 18/38/35 38/59/36
f 18/38/35 19/39/37 38/59/36
f 38/59/36 19/39/37 39/60/38
f 19/39/37 20/40/39 39/60/38
f 39/60/38 20/40/39 40/61/40
f 20/40/39 1/41/1 40/61/40
f 40/61/40 1/41/1 21/62/3
s 2
f 2/2/41 1/1/42 41/83/43
f 3/3/44 2/2/41 41/83/43
f 4/4/45 3/3/44 41/83/43
f 5/5/46 4/4/45 41/83/43
f 6/6/47 5/5/46 41/83/43
f 7/7/48 6/6/47 41/83/43
f 8/8/49 7/7/48 41/83/43
f 9/9/50 8/8/49 41/83/43
f 10/10/51 9/9/50 41/83/43
f 11/11/52 10/10/51 41/83/43
f 12/12/53 11/11/52 41/83/43
f 13/13/54 12/12/53 41/83/43
f 14/14/55 13/13/54 41/83/43
f 15/15/56 14/14/55 41/83/43
f 16/16/57 15/15/56 41/83/43
f 17/17/58 16/16/57 41/83/43
f 18/18/59 17/17/58 41/83/43
f 19/19/60 18/18/59 41/83/43
f 20/20/61 19/19/60 41/83/43
f 1/1/42 20/20/61 41/83/43
s 3
f 21/81/62 22/80/63 42/84/64
f 22/80/63 23/79/65 42/84/64
f 23/79/65 24/78/66 42/84/64
f 24/78/66 25/77/67 42/84/64
f 25/77/67 26/76/68 42/84/64
f 26/76/68 27/75/69 42/84/64
f 27/75/69 28/74/70 42/84/64
f 28/74/70 29/73/71 42/84/64
f 29/73/71 30/72/72 42/84/64
f 30/72/72 31/71/73 42/84/64
f 31/71/73 32/70/74 42/84/64
f 32/70/74 33/69/75 42/84/64
f 33/69/75 34/68/76 42/84/64
f 34/68/76 35/67/77 42/84/64
f 35/67/77 36/66/78 42/84/64
f 36/66/78 37/65/79 42/84/64
f 37/65/79 38/64/80 42/84/64
f 38/64/80 39/63/81 42/84/64
f 39/63/81 40/82/82 42/84/64
f 40/82/82 21/81/62 42/84/64
v -2.253644 3.438455 3.918859
v 2.253644 3.438455 3.918859
v -1.910416 4.041860 3.009291
v 1.910416 4.041860 3.009291
v -1.936270 4.315499 -4.219499
v 1.936270 4.315499 -4.219500
v -2.253644 3.528656 -4.219499
v 2.253644 3.528656 -4.219500
v -2.317662 3.712314 3.918859
v 2.317662 3.712314 3.918859
v -2.345458 3.712314 -4.543425
v 2.345458 3.712314 -4.543425
v -1.936270 4.315499 1.789368
v 1.936270 4.315499 1.789368
v -2.253644 3.167079 1.789368
v 2.253644 3.167079 1.789368
v 2.693720 3.355747 1.789368
v -2.693720 3.355747 1.789368
v 0.645499 3.434901 4.874267
v 0.645499 4.315499 3.559511
v 0.750000 3.528656 -4.282775
v 0.645499 3.712314 4.874267
v 0.750000 3.712314 -4.875224
v 0.334665 3.167079 1.789368
v -0.645499 3.434901 4.874267
v -0.645499 4.315499 3.559511
v -0.750000 3.528656 -4.282775
v -0.645499 3.712314 4.874267
v -0.750000 3.712314 -4.875224
v -0.334665 3.167079 1.789368
v -1.769864 3.528656 -4.282775
v -2.693720 3.712314 -4.219499
v -1.769864 3.712314 -4.875224
v 1.769865 3.712314 -4.875224
v 2.693720 3.712314 -4.219500
v 1.769865 3.528656 -4.282775
v -1.936270 4.315499 -1.976632
v 1.936270 4.315499 -1.976632
v -2.693720 3.355747 -1.976632
v 0.750000 3.167080 -1.976632
v -0.750000 3.167080 -1.976632
v -2.253644 3.167079 -1.976631
v 2.253644 3.167080 -1.976632
v 2.693720 3.355747 -1.976632
v -0.645499 3.408131 3.908522
v 0.645499 3.408131 3.908522
v -0.645499 3.712313 4.874267
v -0.645499 3.408130 3.908522
v 0.645499 3.408130 3.908522
v 0.645499 3.712313 4.874267
v -0.645499 3.408130 3.908522
v 0.645499 3.408130 3.908522
vt 0.067989 0.159006
vt 0.174565 0.112647
vt 0.065811 0.261791
vt 0.033677 0.082370
vt 0.174565 0.001872
vt 0.283338 0.112647
vt 0.392092 0.261791
vt 0.001992 0.261791
vt 0.389914 0.159006
vt 0.392092 0.579095
vt 0.065811 0.579095
vt 0.001992 0.579095
vt 0.283338 0.001872
vt 0.424226 0.082370
vt 0.455911 0.261791
vt 0.065811 0.768068
vt 0.392092 0.768068
vt 0.455911 0.579095
vt 0.001992 0.768068
vt 0.455911 0.768068
vt 0.165760 0.823316
vt 0.292143 0.823316
vt 0.031335 0.795360
vt 0.426568 0.795360
vt 0.079832 0.823316
vt 0.378071 0.823316
vt 0.499218 0.057120
vt 0.462140 0.057120
vt 0.491482 0.029828
vt 0.499218 0.246093
vt 0.462140 0.246093
vt 0.539979 0.001872
vt 0.539979 0.051789
vt 0.625908 0.051789
vt 0.625908 0.246093
vt 0.499218 0.563398
vt 0.462140 0.563398
vt 0.625908 0.001872
vt 0.752290 0.246093
vt 0.752290 0.051789
vt 0.660902 0.563398
vt 0.499218 0.742818
vt 0.493824 0.742818
vt 0.752290 0.001872
vt 0.717296 0.563398
vt 0.878980 0.246093
vt 0.838219 0.051789
vt 0.878980 0.057120
vt 0.634713 0.741947
vt 0.634713 0.823316
vt 0.838219 0.001872
vt 0.878980 0.563398
vt 0.743486 0.741947
vt 0.886716 0.029828
vt 0.916058 0.246093
vt 0.916058 0.057120
vt 0.916058 0.563398
vt 0.743486 0.823316
vt 0.878980 0.742818
vt 0.884374 0.742818
vt 0.923813 0.827307
vt 0.947187 0.827307
vt 0.998008 0.938082
vt 0.921558 0.908676
vt 0.838972 0.856713
vt 0.915422 0.827307
vt 0.864601 0.938082
vt 0.841228 0.938082
vt 0.832837 0.827307
vt 0.832837 0.936080
vt 0.756386 0.936080
vt 0.756386 0.827307
vt 0.697669 0.907805
vt 0.697369 0.827307
vt 0.720743 0.827307
vt 0.720743 0.907805
vt 0.750251 0.907805
vt 0.726878 0.907805
vt 0.727177 0.827307
vt 0.750251 0.827307
vn -0.510764 -0.000000 0.859721
vn -0.479215 0.298303 0.825451
vn -0.502633 -0.057697 0.862572
vn -0.411341 0.688797 0.596957
vn -0.294958 0.930989 0.215080
vn -0.099863 0.992333 0.072819
vn -0.099863 0.992333 0.072819
vn -0.098828 0.719751 -0.687162
vn -0.203155 -0.542736 -0.814964
vn -0.314290 -0.603483 -0.732823
vn 0.393734 -0.918404 0.038836
vn 0.988451 0.116775 0.096580
vn 0.751439 -0.634790 0.179945
vn 0.941467 0.317571 0.113084
vn -0.378104 -0.897680 -0.226291
vn -0.932940 0.099315 -0.346064
vn -0.672709 -0.156115 -0.723250
vn -0.263477 0.914079 0.308285
vn -0.292192 0.933594 0.207426
vn -0.077486 -0.930493 -0.358022
vn -0.062618 -0.875711 -0.478758
vn 0.717332 0.693129 0.070762
vn 0.782645 0.617675 0.077104
vn -0.596024 0.748457 -0.290804
vn -0.018668 -0.999442 0.027703
vn -0.018301 -0.996852 0.077143
vn -0.007317 -0.995090 0.098699
vn 0.000000 -0.998397 0.056601
vn -0.004481 -0.998191 0.059964
vn 0.789168 -0.612226 -0.048918
vn 0.392966 -0.916612 -0.073483
vn -0.393363 -0.917535 0.058265
vn -0.751439 -0.634790 0.179945
vn -0.970232 -0.219024 0.103340
vn -0.941467 0.317571 0.113084
vn 0.747908 0.663345 0.024648
vn -0.783945 0.618701 0.051386
vn -0.717332 0.693129 0.070762
vn 0.510764 0.000000 0.859721
vn 0.502633 -0.057697 0.862573
vn 0.479215 0.298303 0.825451
vn 0.411341 0.688797 0.596957
vn 0.059654 0.997271 0.043499
vn 0.150091 0.982596 0.109446
vn 0.294957 0.930989 0.215081
vn -0.000000 -0.219735 -0.975560
vn 0.132157 0.712584 -0.689027
vn 0.266966 -0.255783 -0.929142
vn 0.000000 -0.998397 0.056601
vn 0.002747 -0.996100 -0.088194
vn 0.004481 -0.998191 0.059964
vn 0.000000 -0.996808 -0.079833
vn 0.263477 0.914079 0.308285
vn 0.292192 0.933594 0.207426
vn 0.000000 -0.955158 -0.296097
vn 0.058071 -0.937613 -0.342798
vn 0.018668 -0.999442 0.027703
vn 0.009147 -0.995425 0.095112
vn 0.018301 -0.996852 0.077143
vn 0.000000 -0.527840 -0.849344
vn -0.002137 -0.996305 -0.085859
vn 0.000000 -0.955158 -0.296096
vn 0.000000 1.000000 0.000000
vn 0.000000 1.000000 0.000000
vn 0.000000 1.000000 0.000000
vn 0.000000 1.000000 0.000000
vn 0.000000 -0.987931 -0.154896
vn -0.009587 -0.988526 -0.150750
vn 0.000000 -0.996808 -0.079833
vn -0.009587 -0.988198 -0.152882
vn -0.968321 -0.243945 -0.053349
vn -0.393559 -0.917994 -0.048974
vn -0.734810 0.677475 0.032900
vn 0.932940 0.099315 -0.346064
vn 0.378104 -0.897680 -0.226292
vn 0.672709 -0.156115 -0.723250
vn 0.596024 0.748457 -0.290804
vn 0.314290 -0.603484 -0.732823
vn 0.062617 -0.875711 -0.478758
vn 0.009587 -0.988198 -0.152882
vn 0.009587 -0.988526 -0.150750
vn 0.000000 -0.987931 -0.154896
vn -1.000000 -0.000000 0.000000
vn -1.000000 -0.000000 0.000000
vn -1.000000 -0.000000 0.000000
vn -1.000000 0.000000 -0.000000
vn 1.000000 0.000000 -0.000000
vn 1.000000 -0.000000 0.000000
vn 1.000000 -0.000000 0.000000
vn 1.000000 -0.000001 0.000000
vn 0.000000 0.359000 0.933338
vn 0.000000 0.359000 0.933338
vn 0.000000 0.359000 0.933338
vn 0.000000 0.358999 0.933338
s 1
f 67/158/83 70/159/84 43/157/85
f 43/157/85 70/159/84 51/160/86
s 2
f 45/85/87 68/86/88 55/87/89
s 3
f 47/100/90 75/109/91 53/107/92
s 4
f 58/136/93 59/141/94 44/143/95
f 44/143/95 59/141/94 52/144/96
s 5
f 49/111/97 74/112/98 53/113/99
s 1
f 70/89/84 68/86/100 51/88/86
f 51/88/86 68/86/100 45/85/101
s 3
f 75/116/91 73/117/102 53/113/92
f 53/113/92 73/117/102 49/111/103
s 4
f 52/98/96 59/99/94 46/93/104
f 46/93/104 59/99/94 56/91/105
s 5
f 53/107/99 74/103/98 47/100/106
s 6
f 67/134/107 43/126/108 87/133/109
f 72/125/110 87/133/109 57/120/111
f 57/120/111 87/133/109 43/126/108
s 4
f 59/141/94 58/136/93 86/139/112
f 86/139/112 58/136/93 85/130/113
s 5
f 57/120/114 43/126/115 60/121/116
f 60/121/116 43/126/115 51/127/117
s 4
f 56/91/105 59/99/94 80/94/118
f 80/94/118 59/99/94 86/102/112
s 5
f 55/87/119 60/92/116 45/85/120
f 45/85/120 60/92/116 51/88/117
s 10
f 61/162/121 44/163/122 64/161/123
f 64/161/123 44/163/122 52/164/124
s 2
f 56/91/125 62/90/126 46/93/127
s 3
f 65/106/128 48/101/129 76/110/130
s 6
f 66/129/131 82/123/132 58/136/133
f 58/136/133 82/123/132 85/130/134
s 10
f 64/97/123 52/98/124 62/90/135
f 62/90/135 52/98/124 46/93/136
s 3
f 63/124/137 65/128/128 78/131/138
f 78/131/138 65/128/128 76/135/130
s 6
f 61/142/139 88/137/140 44/143/141
f 66/129/131 58/136/133 88/137/140
f 88/137/140 58/136/133 44/143/141
s 2
f 55/87/89 68/86/88 56/91/125
f 56/91/125 68/86/88 62/90/126
s 3
f 71/105/142 47/100/90 65/106/128
f 65/106/128 47/100/90 48/101/129
s 6
f 72/125/110 83/119/143 66/129/131
f 66/129/131 83/119/143 82/123/132
s 3
f 69/118/144 71/122/142 63/124/137
f 63/124/137 71/122/142 65/128/128
s 2
f 47/100/145 79/95/146 48/101/147
f 48/101/147 79/95/146 80/94/148
s 3
f 75/109/91 47/100/90 71/105/142
s 6
f 69/118/149 83/119/143 73/117/150
f 84/114/151 49/111/152 83/119/143
f 49/111/152 73/117/150 83/119/143
s 5
f 74/112/98 49/111/97 81/115/153
f 81/115/153 49/111/97 84/114/154
s 3
f 73/117/102 75/116/91 69/118/144
f 69/118/144 75/116/91 71/122/142
s 5
f 47/100/106 74/103/98 79/95/155
f 79/95/155 74/103/98 81/96/153
s 4
f 77/140/156 50/132/157 54/138/158
f 48/101/159 77/104/156 54/108/158
s 3
f 76/110/130 48/101/129 54/108/160
f 76/135/130 54/138/160 78/131/138
f 78/131/138 54/138/160 50/132/161
s 4
f 85/130/113 50/132/157 86/139/112
f 86/139/112 50/132/157 77/140/156
f 86/102/112 77/104/156 80/94/118
f 80/94/118 77/104/156 48/101/159
s 6
f 85/130/134 82/123/132 50/132/162
f 50/132/162 82/123/132 78/131/163
f 82/123/132 63/124/164 78/131/163
f 82/123/132 83/119/143 63/124/164
f 63/124/164 83/119/143 69/118/149
s 2
f 80/94/148 79/95/146 56/91/125
f 56/91/125 79/95/146 55/87/89
s 6
f 84/114/151 83/119/143 57/120/111
f 57/120/111 83/119/143 72/125/110
s 5
f 81/115/153 84/114/154 60/121/116
f 60/121/116 84/114/154 57/120/114
f 79/95/155 81/96/153 55/87/119
f 55/87/119 81/96/153 60/92/116
s 6
f 88/137/140 87/133/109 66/129/131
f 66/129/131 87/133/109 72/125/110
s 20
f 67/145/165 89/146/166 90/148/167
f 90/148/167 89/146/166 68/147/168
s 21
f 62/150/169 92/151/170 91/149/171
f 91/149/171 92/151/170 61/152/172
s 22
f 62/153/173 68/154/174 94/156/175
f 94/156/175 68/154/174 93/155/176
